{"title":"All.That.I.Love.2009.BRRip.x264.AC3.HORiZON-ArtSubs","uid":14237740,"size":2020726223,"categoryP":"video","categoryS":"movies","magnet":"?xt=urn:btih:243fa1cf39852f8630c7d950bc5875400bc8ac40&amp;dn=All.That.I.Love.2009.BRRip.x264.AC3.HORiZON-ArtSubs&amp;tr=udp%3A%2F%2Ftracker.leechers-paradise.org%3A6969&amp;tr=udp%3A%2F%2Fzer0day.ch%3A1337&amp;tr=udp%3A%2F%2Fopen.demonii.com%3A1337&amp;tr=udp%3A%2F%2Ftracker.coppersurfer.tk%3A6969&amp;tr=udp%3A%2F%2Fexodus.desync.com%3A6969","seeders":3,"leechers":0,"uploader":"noriegaRJ","files":1,"time":1460110091,"description":"Title: All That I Love aka Wszystko, co kocham\r\n\r\nRelease: All.That.I.Love.2009.BRRip.x264.AC3.HORiZON-ArtSubs\r\n\r\n\r\nIMDB Link:                                                        \nhttp://www.imdb.com/title/tt1442584/\r\n\r\n\r\nPlot: Follows four friends in their quest to form a punk band. As workers protests sweep across the country, Janek and Staszek, the sons of a navy man, the rebellious Kazik, and the affluent Diabel gel as a band, but their disparate lives are touched by social turmoil and outside perceptions.\r\n\r\n\r\nENGLISH, RUSSIAN AND BRAZILIAN PORTUGUESE SUBTITLES IN MKV CONTAINER.\r\n\r\n\r\n\r\nGeneral\r\nComplete name                            : All.That.I.Love.2009.BRRip.x264.AC3.HORiZON-ArtSubs\r\nFormat                                   : Matroska\r\nFormat version                           : Version 2\r\nFile size                                : 1.88 GiB\r\nDuration                                 : 1h 31mn\r\nOverall bit rate                         : 2 953 Kbps\r\nWriting application                      : HandBrake 0.9.5\r\nWriting library                          : libmkv 0.6.4.1\r\n\r\nVideo\r\nID                                       : 1\r\nFormat                                   : AVC\r\nFormat/Info                              : Advanced Video Codec\r\nFormat profile                           :   \r\nFormat settings, CABAC                   : Yes\r\nFormat settings, ReFrames                : 4 frames\r\nCodec ID                                 : V_MPEG4/ISO/AVC\r\nDuration                                 : 1h 31mn\r\nBit rate                                 : 2 267 Kbps\r\nWidth                                    : 1 280 pixels\r\nHeight                                   : 688 pixels\r\nDisplay aspect ratio                     : 1.85:1\r\nOriginal display aspect ratio            : 1.85:1\r\nFrame rate mode                          : Constant\r\nFrame rate                               : 25.000 fps\r\nColor space                              : YUV\r\nChroma subsampling                       : 4:2:0\r\nBit depth                                : 8 bits\r\nScan type                                : Progressive\r\nBits/(Pixel*Frame)                       : 0.103\r\nStream size                              : 1.44 GiB (76%)\r\nWriting library                          : x264 core 112\r\nLanguage                                 : English\r\nDefault                                  : Yes\r\nForced                                   : No\r\nColor primaries                          : BT.709\r\nTransfer characteristics                 : BT.709\r\nMatrix coefficients                      : BT.709\r\n\r\nAudio\r\nID                                       : 2\r\nFormat                                   : AC-3\r\nFormat/Info                              : Audio Coding 3\r\nMode extension                           : CM (complete main)\r\nFormat settings, Endianness              : Big\r\nCodec ID                                 : A_AC3\r\nDuration                                 : 1h 31mn\r\nBit rate mode                            : Constant\r\nBit rate                                 : 640 Kbps\r\nChannel count                            : 6 channels\r\nChannel positions                        : Front: L C R, Side: L R, LFE\r\nSampling rate                            : 48.0 KHz\r\nBit depth                                : 16 bits\r\nCompression mode                         : Lossy\r\nStream size                              : 418 MiB (22%)\r\nLanguage                                 : Polish\r\nDefault                                  : Yes\r\nForced                                   : No\r\n\r\nText #1\r\nID                                       : 3\r\nFormat                                   : UTF-8\r\nCodec ID                                 : S_TEXT/UTF8\r\nCodec ID/Info                            : UTF-8 Plain Text\r\nLanguage                                 : Russian\r\nDefault                                  : No\r\nForced                                   : No\r\n\r\nText #2\r\nID                                       : 4\r\nFormat                                   : UTF-8\r\nCodec ID                                 : S_TEXT/UTF8\r\nCodec ID/Info                            : UTF-8 Plain Text\r\nLanguage                                 : English\r\nDefault                                  : No\r\nForced                                   : No\r\n\r\nText #3\r\nID                                       : 5\r\nFormat                                   : UTF-8\r\nCodec ID                                 : S_TEXT/UTF8\r\nCodec ID/Info                            : UTF-8 Plain Text\r\nLanguage                                 : Portuguese\r\nDefault                                  : No\r\nForced                                   : No\r\n\r\n\r\n\r\nThanks to those helping me seed. Leechers remember, the community depends on you. If nobody shares, the freebies go away. Remember, the only reason you can download this free movie is because others are generous enough to keep sharing it with you. If nobody shares, everybody loses, so even if its for an extra hour or two after you get it, remember, others want to see it too, and they can't without you.\r\n\r\n\r\nSEE MY OTHERS UPLOADS:                                                                                \nhttp://thepiratebay.se/user/noriegaRJ\r\n\r\nAND SEE THIS ANOTHERS UPLOADS FROM &quot;HORiZON-ArtSubs&quot;:                                \nhttp://thepiratebay.se/user/artsubs                                \nhttp://thepiratebay.se/user/lletaif","torrent":{"xt":"urn:btih:243fa1cf39852f8630c7d950bc5875400bc8ac40","amp;dn":"All.That.I.Love.2009.BRRip.x264.AC3.HORiZON-ArtSubs","amp;tr":["udp%3A%2F%2Ftracker.leechers-paradise.org%3A6969","udp%3A%2F%2Fzer0day.ch%3A1337","udp%3A%2F%2Fopen.demonii.com%3A1337","udp%3A%2F%2Ftracker.coppersurfer.tk%3A6969","udp%3A%2F%2Fexodus.desync.com%3A6969"],"infoHash":"243fa1cf39852f8630c7d950bc5875400bc8ac40","infoHashBuffer":{"type":"Buffer","data":[36,63,161,207,57,133,47,134,48,199,217,80,188,88,117,64,11,200,172,64]},"announce":[],"urlList":[]}}